<svg width="330" height="37" viewBox="0 0 330 37" fill="none" xmlns="http://www.w3.org/2000/svg">
<g clip-path="url(#clip0_7_528)">
<path d="M0 28.8238V1.3291H10.5623C12.7262 1.3291 14.5415 1.72291 16.0086 2.51052C17.4847 3.29812 18.5987 4.38108 19.3505 5.75942C20.1116 7.12878 20.492 8.68609 20.492 10.4314C20.492 12.1945 20.1116 13.7608 19.3505 15.1302C18.5895 16.4996 17.4664 17.578 15.981 18.3657C14.4957 19.1443 12.6666 19.5336 10.4936 19.5336H3.49328V15.439H9.80593C11.0712 15.439 12.1073 15.2241 12.9141 14.7946C13.721 14.3649 14.3169 13.7742 14.702 13.0224C15.0963 12.2706 15.2934 11.4069 15.2934 10.4314C15.2934 9.45582 15.0963 8.59659 14.702 7.85375C14.3169 7.11088 13.7164 6.5336 12.9003 6.12189C12.0935 5.70123 11.0529 5.4909 9.77842 5.4909H5.10238V28.8238H0Z" fill="#8545AC"/>
<path d="M22.7676 28.8236V8.20258H27.595V11.6394H27.815C28.2001 10.449 28.8601 9.53168 29.7953 8.88726C30.7397 8.23391 31.8171 7.90723 33.0274 7.90723C33.3025 7.90723 33.6095 7.92066 33.9487 7.94751C34.2973 7.96539 34.586 7.99673 34.8152 8.04149V12.5121C34.6042 12.4405 34.2697 12.3778 33.8112 12.3241C33.3619 12.2615 32.9264 12.2301 32.5047 12.2301C31.5971 12.2301 30.781 12.4226 30.0566 12.8074C29.3415 13.1833 28.7777 13.7069 28.365 14.3782C27.9526 15.0494 27.7461 15.8236 27.7461 16.7007V28.8236H22.7676Z" fill="#8545AC"/>
<path d="M59.1965 36.5566V8.20258H64.0927V11.6126H64.3816C64.6382 11.1114 65.0006 10.5788 65.4681 10.015C65.9357 9.44218 66.5684 8.9544 67.366 8.55165C68.1635 8.13994 69.1814 7.93408 70.4192 7.93408C72.0512 7.93408 73.5228 8.34132 74.8338 9.15576C76.154 9.96127 77.1994 11.1561 77.9697 12.7403C78.749 14.3155 79.1386 16.2487 79.1386 18.54C79.1386 20.8043 78.758 22.7286 77.997 24.3128C77.236 25.897 76.1999 27.1053 74.8889 27.9377C73.5776 28.77 72.0925 29.1861 70.433 29.1861C69.2227 29.1861 68.2187 28.9892 67.4211 28.5954C66.6233 28.2016 65.9815 27.7273 65.4954 27.1723C65.0188 26.6085 64.6475 26.076 64.3816 25.5747H64.1752V36.5566H59.1965ZM64.0789 18.5131C64.0789 19.8467 64.2716 21.0147 64.6565 22.0171C65.0509 23.0195 65.6147 23.8026 66.3481 24.3665C67.0908 24.9214 67.9894 25.1989 69.0438 25.1989C70.1441 25.1989 71.0654 24.9124 71.8081 24.3396C72.5508 23.7579 73.1101 22.9658 73.4862 21.9634C73.8711 20.952 74.0638 19.8019 74.0638 18.5131C74.0638 17.2332 73.8758 16.0966 73.4997 15.1031C73.1239 14.1097 72.5646 13.331 71.8219 12.7671C71.0792 12.2033 70.1533 11.9214 69.0438 11.9214C67.9804 11.9214 67.077 12.1943 66.3346 12.7403C65.5919 13.2862 65.0279 14.0515 64.6427 15.036C64.2669 16.0205 64.0789 17.1796 64.0789 18.5131Z" fill="#8545AC"/>
<path d="M90.8175 29.2264C88.6995 29.2264 86.8703 28.7967 85.33 27.9377C83.7988 27.0693 82.6208 25.8433 81.7954 24.2591C80.9703 22.666 80.5579 20.7909 80.5579 18.6339C80.5579 16.5128 80.9703 14.6511 81.7954 13.0491C82.6298 11.4381 83.7942 10.185 85.2887 9.29002C86.7833 8.38605 88.5391 7.93408 90.5562 7.93408C91.8582 7.93408 93.0867 8.13994 94.2421 8.55165C95.4065 8.9544 96.4334 9.58089 97.3227 10.4312C98.2212 11.2814 98.9273 12.3644 99.4408 13.6801C99.9542 14.9868 100.211 16.5441 100.211 18.352V19.8422H82.8957V16.5665H95.4386C95.4293 15.6356 95.2231 14.8078 94.8197 14.0828C94.4163 13.3489 93.8525 12.7716 93.1281 12.351C92.4129 11.9303 91.5785 11.72 90.6249 11.72C89.6073 11.72 88.7132 11.9616 87.9432 12.4449C87.173 12.9193 86.5723 13.5458 86.1414 14.3245C85.7196 15.0942 85.5041 15.94 85.4951 16.8618V19.7214C85.4951 20.9207 85.7196 21.95 86.1689 22.8092C86.6182 23.6594 87.2464 24.3128 88.0532 24.7693C88.8601 25.2168 89.8045 25.4405 90.8862 25.4405C91.6106 25.4405 92.2661 25.3421 92.8529 25.1452C93.4398 24.9393 93.9487 24.6395 94.3794 24.2457C94.8104 23.8519 95.1359 23.3641 95.3559 22.7823L100.005 23.2925C99.7111 24.4918 99.1518 25.539 98.3267 26.4338C97.5106 27.32 96.4655 28.0091 95.191 28.5014C93.9166 28.9848 92.4588 29.2264 90.8175 29.2264Z" fill="#8545AC"/>
<path d="M107.465 1.3291V28.8238H102.486V1.3291H107.465Z" fill="#8545AC"/>
<path d="M115.627 1.3291V28.8238H110.648V1.3291H115.627Z" fill="#8545AC"/>
<path d="M128.162 29.2264C126.044 29.2264 124.215 28.7967 122.674 27.9377C121.143 27.0693 119.965 25.8433 119.14 24.2591C118.315 22.666 117.902 20.7909 117.902 18.6339C117.902 16.5128 118.315 14.6511 119.14 13.0491C119.974 11.4381 121.139 10.185 122.633 9.29002C124.128 8.38605 125.884 7.93408 127.901 7.93408C129.203 7.93408 130.431 8.13994 131.587 8.55165C132.751 8.9544 133.778 9.58089 134.667 10.4312C135.566 11.2814 136.272 12.3644 136.785 13.6801C137.299 14.9868 137.555 16.5441 137.555 18.352V19.8422H120.24V16.5665H132.783C132.774 15.6356 132.568 14.8078 132.164 14.0828C131.761 13.3489 131.197 12.7716 130.473 12.351C129.757 11.9303 128.923 11.72 127.969 11.72C126.952 11.72 126.058 11.9616 125.288 12.4449C124.517 12.9193 123.917 13.5458 123.486 14.3245C123.064 15.0942 122.849 15.94 122.84 16.8618V19.7214C122.84 20.9207 123.064 21.95 123.513 22.8092C123.963 23.6594 124.591 24.3128 125.398 24.7693C126.205 25.2168 127.149 25.4405 128.231 25.4405C128.955 25.4405 129.611 25.3421 130.197 25.1452C130.784 24.9393 131.293 24.6395 131.724 24.2457C132.155 23.8519 132.48 23.3641 132.7 22.7823L137.349 23.2925C137.056 24.4918 136.496 25.539 135.671 26.4338C134.855 27.32 133.81 28.0091 132.536 28.5014C131.261 28.9848 129.803 29.2264 128.162 29.2264Z" fill="#8545AC"/>
<path d="M139.831 28.8236V8.20258H144.658V11.6394H144.878C145.263 10.449 145.923 9.53168 146.858 8.88726C147.803 8.23391 148.88 7.90723 150.09 7.90723C150.365 7.90723 150.673 7.92066 151.012 7.94751C151.36 7.96539 151.649 7.99673 151.878 8.04149V12.5121C151.667 12.4405 151.333 12.3778 150.874 12.3241C150.425 12.2615 149.99 12.2301 149.568 12.2301C148.66 12.2301 147.844 12.4226 147.12 12.8074C146.405 13.1833 145.841 13.7069 145.428 14.3782C145.015 15.0494 144.809 15.8236 144.809 16.7007V28.8236H139.831Z" fill="#8545AC"/>
<path d="M161.369 1.3291H167.613L175.975 21.2521H176.305L184.667 1.3291H190.911V28.8238H186.014V9.93464H185.753L177.969 28.7433H174.311L166.526 9.89438H166.265V28.8238H161.369V1.3291Z" fill="black"/>
<path d="M200.389 29.2399C199.051 29.2399 197.845 29.007 196.772 28.5418C195.709 28.0673 194.865 27.3692 194.242 26.4473C193.627 25.5255 193.32 24.3889 193.32 23.0374C193.32 21.8739 193.54 20.9118 193.98 20.151C194.42 19.3902 195.021 18.7816 195.782 18.3252C196.543 17.8687 197.4 17.5241 198.354 17.2914C199.317 17.0498 200.311 16.8752 201.338 16.7678C202.576 16.6426 203.58 16.5307 204.35 16.4322C205.12 16.3248 205.68 16.1637 206.028 15.9489C206.386 15.7252 206.564 15.3806 206.564 14.9152V14.8346C206.564 13.8233 206.257 13.0401 205.643 12.4852C205.029 11.9303 204.144 11.6529 202.989 11.6529C201.769 11.6529 200.802 11.9124 200.087 12.4315C199.381 12.9506 198.904 13.5637 198.656 14.2708L194.008 13.6264C194.374 12.3734 194.98 11.3262 195.823 10.4849C196.667 9.63461 197.698 8.99914 198.918 8.5785C200.137 8.14889 201.485 7.93408 202.961 7.93408C203.979 7.93408 204.992 8.05044 206.001 8.28315C207.009 8.51584 207.93 8.90069 208.765 9.43771C209.599 9.96577 210.269 10.6863 210.773 11.5992C211.286 12.5121 211.543 13.6532 211.543 15.0226V28.8236H206.757V25.9909H206.592C206.289 26.5637 205.863 27.1009 205.313 27.6021C204.772 28.0942 204.089 28.4924 203.264 28.7969C202.448 29.0922 201.489 29.2399 200.389 29.2399ZM201.682 25.6687C202.681 25.6687 203.548 25.4763 204.281 25.0915C205.015 24.6977 205.579 24.1786 205.973 23.5341C206.376 22.8897 206.578 22.1872 206.578 21.4264V18.9964C206.422 19.1217 206.156 19.2381 205.781 19.3455C205.414 19.4529 205.001 19.5469 204.543 19.6274C204.084 19.708 203.63 19.7796 203.181 19.8422C202.732 19.9049 202.342 19.9586 202.012 20.0033C201.269 20.1018 200.605 20.2629 200.018 20.4866C199.431 20.7104 198.968 21.0236 198.629 21.4264C198.29 21.8202 198.12 22.3304 198.12 22.9569C198.12 23.8519 198.455 24.5276 199.124 24.9841C199.793 25.4405 200.646 25.6687 201.682 25.6687Z" fill="black"/>
<path d="M214.613 28.8236V8.20261H219.44V11.6394H219.66C220.045 10.4491 220.705 9.53168 221.64 8.88729C222.585 8.23391 223.662 7.90723 224.872 7.90723C225.147 7.90723 225.455 7.92066 225.794 7.94751C226.142 7.96542 226.431 7.99675 226.66 8.04149V12.5121C226.449 12.4405 226.115 12.3778 225.656 12.3241C225.207 12.2615 224.772 12.2301 224.35 12.2301C223.442 12.2301 222.626 12.4226 221.902 12.8074C221.187 13.1833 220.623 13.7069 220.21 14.3782C219.797 15.0494 219.591 15.8236 219.591 16.7007V28.8236H214.613Z" fill="black"/>
<path d="M232.57 22.3529L232.556 16.4861H233.354L240.945 8.20281H246.763L237.425 18.3522H236.393L232.57 22.3529ZM228.031 28.8238V1.3291H233.01V28.8238H228.031ZM241.289 28.8238L234.413 19.4397L237.768 16.0162L247.244 28.8238H241.289Z" fill="black"/>
<path d="M256.627 29.2264C254.509 29.2264 252.68 28.7969 251.139 27.9377C249.608 27.0693 248.43 25.8433 247.605 24.2591C246.78 22.666 246.367 20.7909 246.367 18.634C246.367 16.5128 246.78 14.6512 247.605 13.0491C248.439 11.4381 249.604 10.1851 251.098 9.29004C252.593 8.38608 254.348 7.93408 256.366 7.93408C257.668 7.93408 258.896 8.13994 260.051 8.55165C261.216 8.9544 262.243 9.58092 263.132 10.4312C264.031 11.2814 264.737 12.3644 265.251 13.6801C265.763 14.9868 266.02 16.5441 266.02 18.352V19.8422H248.705V16.5665H261.248C261.239 15.6357 261.032 14.8078 260.629 14.0828C260.226 13.3489 259.662 12.7716 258.937 12.351C258.222 11.9303 257.388 11.72 256.434 11.72C255.417 11.72 254.523 11.9616 253.753 12.445C252.982 12.9193 252.382 13.5458 251.951 14.3245C251.529 15.0942 251.314 15.94 251.304 16.8618V19.7214C251.304 20.9207 251.529 21.95 251.979 22.8092C252.428 23.6594 253.056 24.3128 253.863 24.7693C254.669 25.2168 255.614 25.4405 256.696 25.4405C257.42 25.4405 258.076 25.3421 258.662 25.1452C259.249 24.9393 259.758 24.6395 260.189 24.2457C260.62 23.8519 260.946 23.3641 261.166 22.7823L265.813 23.2925C265.522 24.4918 264.961 25.539 264.136 26.4341C263.32 27.32 262.275 28.0093 261 28.5014C259.726 28.9848 258.268 29.2264 256.627 29.2264Z" fill="black"/>
<path d="M278.843 8.20269V11.9617H266.701V8.20269H278.843ZM269.699 3.26221H274.677V22.6213C274.677 23.2747 274.777 23.7759 274.979 24.1249C275.191 24.465 275.466 24.6978 275.806 24.823C276.145 24.9483 276.519 25.011 276.932 25.011C277.245 25.011 277.529 24.9886 277.786 24.9439C278.051 24.8991 278.252 24.8588 278.39 24.823L279.23 28.6224C278.963 28.7119 278.584 28.8102 278.088 28.9179C277.603 29.0252 277.006 29.0878 276.299 29.1057C275.053 29.1414 273.929 28.958 272.93 28.5554C271.931 28.1434 271.138 27.508 270.552 26.649C269.974 25.7897 269.688 24.7156 269.699 23.4268V3.26221Z" fill="black"/>
<path d="M281.073 28.8238V8.2028H286.05V28.8238H281.073ZM283.575 5.2761C282.785 5.2761 282.109 5.02103 281.539 4.51087C280.972 3.99176 280.686 3.36972 280.686 2.64475C280.686 1.91085 280.972 1.28882 281.539 0.778659C282.109 0.259554 282.785 0 283.575 0C284.373 0 285.051 0.259554 285.61 0.778659C286.178 1.28882 286.464 1.91085 286.464 2.64475C286.464 3.36972 286.178 3.99176 285.61 4.51087C285.051 5.02103 284.373 5.2761 283.575 5.2761Z" fill="black"/>
<path d="M294.211 16.741V28.8236H289.234V8.2026H293.991V11.7066H294.238C294.726 10.552 295.5 9.63461 296.563 8.9544C297.636 8.2742 298.961 7.93408 300.538 7.93408C301.996 7.93408 303.266 8.23839 304.347 8.847C305.439 9.45561 306.282 10.3372 306.879 11.4917C307.483 12.6463 307.783 14.047 307.772 15.6938V28.8236H302.794V16.4457C302.794 15.0673 302.426 13.9888 301.694 13.2102C300.968 12.4315 299.966 12.0422 298.68 12.0422C297.811 12.0422 297.037 12.2301 296.358 12.606C295.688 12.973 295.16 13.5055 294.776 14.2036C294.4 14.9018 294.211 15.7476 294.211 16.741Z" fill="black"/>
<path d="M320.084 36.9861C318.295 36.9861 316.76 36.7491 315.477 36.2746C314.194 35.8093 313.161 35.1827 312.381 34.3951C311.602 33.6075 311.061 32.735 310.759 31.7771L315.244 30.7165C315.445 31.1194 315.737 31.5176 316.124 31.9114C316.508 32.3143 317.025 32.6455 317.677 32.905C318.337 33.1735 319.167 33.3076 320.166 33.3076C321.579 33.3076 322.748 32.972 323.673 32.3008C324.601 31.6384 325.062 30.5465 325.062 29.0251V25.1183H324.815C324.558 25.6195 324.182 26.1342 323.686 26.6623C323.201 27.1901 322.554 27.6334 321.749 27.9912C320.951 28.3493 319.946 28.5284 318.737 28.5284C317.113 28.5284 315.642 28.1568 314.322 27.414C313.01 26.6623 311.965 25.5434 311.186 24.0577C310.415 22.5631 310.03 20.6925 310.03 18.446C310.03 16.1816 310.415 14.2708 311.186 12.7134C311.965 11.1472 313.015 9.96129 314.335 9.15578C315.655 8.34132 317.126 7.93408 318.751 7.93408C319.989 7.93408 321.006 8.13994 321.804 8.55165C322.61 8.9544 323.251 9.44218 323.729 10.015C324.206 10.5789 324.569 11.1114 324.815 11.6126H325.091V8.2026H330V29.1592C330 30.9225 329.568 32.3813 328.706 33.5358C327.845 34.6905 326.668 35.5542 325.173 36.1271C323.678 36.6997 321.982 36.9861 320.084 36.9861ZM320.126 24.7155C321.179 24.7155 322.077 24.465 322.822 23.9637C323.564 23.4625 324.126 22.7421 324.513 21.8023C324.898 20.8625 325.091 19.7348 325.091 18.4192C325.091 17.1214 324.898 15.9847 324.513 15.0092C324.137 14.0336 323.577 13.2773 322.835 12.7403C322.101 12.1943 321.197 11.9214 320.126 11.9214C319.016 11.9214 318.091 12.2033 317.346 12.7672C316.604 13.331 316.044 14.1052 315.668 15.0897C315.294 16.0653 315.106 17.1751 315.106 18.4192C315.106 19.6811 315.294 20.7865 315.668 21.7352C316.055 22.6749 316.617 23.4089 317.362 23.9369C318.112 24.456 319.034 24.7155 320.126 24.7155Z" fill="black"/>
<mask id="mask0_7_528" style="mask-type:luminance" maskUnits="userSpaceOnUse" x="35" y="2" width="22" height="28">
<path d="M42.704 2.37942L42.6753 2.36035L42.6558 2.38804L42.6845 2.40711L42.704 2.37942Z" fill="white"/>
<path d="M45.9605 17.5187C47.1127 14.4998 49.2144 13.9499 51.2203 13.4153C53.0045 12.9399 53.7657 11.3957 52.3975 9.87776C51.1482 8.49177 48.5994 7.72744 46.2629 8.4455C43.2386 9.37498 41.3007 13.1891 45.8648 17.5325C45.9605 17.5192 45.8648 17.5325 45.9605 17.5187Z" fill="white"/>
<path d="M44.6267 18.3997C41.5342 17.2749 40.9707 15.2233 40.4231 13.2651C39.9362 11.5236 38.3543 10.7803 36.7992 12.116C35.3793 13.3355 34.5963 15.8235 35.3318 18.1042C36.2842 21.0565 40.1914 22.9483 44.641 18.493C44.6272 18.3996 44.641 18.493 44.6267 18.3997Z" fill="white"/>
<path d="M45.5291 19.7014C44.3769 22.7202 42.2752 23.2702 40.2692 23.8047C38.4851 24.2801 37.7236 25.8243 39.0921 27.3424C40.3413 28.7282 42.8901 29.4925 45.2264 28.7745C48.2507 27.8451 50.1888 24.031 45.6248 19.6875C45.5291 19.7009 45.6248 19.6875 45.5291 19.7014Z" fill="white"/>
<path d="M46.8627 18.8205C49.9554 19.9452 50.5187 21.9968 51.0663 23.955C51.5532 25.6965 53.1353 26.4397 54.6902 25.1042C56.1101 23.8846 56.8931 21.3966 56.1576 19.1159C55.2055 16.1636 51.2982 14.2718 46.8486 18.7271C46.8622 18.8205 46.8486 18.7271 46.8627 18.8205Z" fill="white"/>
<path d="M47.7985 19.9907C47.0176 21.0979 45.4649 21.3774 44.3307 20.6149C43.1962 19.8524 42.91 18.3368 43.6911 17.2296C44.4722 16.1224 46.0247 15.8429 47.1591 16.6054C48.2933 17.3678 48.5796 18.8835 47.7985 19.9907Z" fill="white"/>
</mask>
<g mask="url(#mask0_7_528)">
<path d="M45.96 17.5182C47.1125 14.4993 49.2141 13.9494 51.2201 13.4148C53.004 12.9394 53.7655 11.3953 52.3972 9.8773C51.148 8.4913 48.5992 7.72695 46.2627 8.44501C43.2383 9.37449 41.3005 13.1886 45.8646 17.5321C45.9602 17.5187 45.8646 17.5321 45.96 17.5182Z" fill="#8545AC"/>
<path d="M44.6264 18.3992C41.5337 17.2744 40.9705 15.2228 40.4228 13.2646C39.9359 11.5231 38.3541 10.7798 36.7989 12.1155C35.379 13.335 34.596 15.823 35.3316 18.1038C36.2837 21.056 40.1909 22.9478 44.6405 18.4925C44.627 18.3991 44.6405 18.4925 44.6264 18.3992Z" fill="#8545AC"/>
<path d="M45.5287 19.7009C44.3764 22.7197 42.2748 23.2697 40.2685 23.8042C38.4847 24.2796 37.7232 25.8238 39.0914 27.3418C40.3406 28.7279 42.8895 29.4922 45.226 28.774C48.2503 27.8446 50.1884 24.0305 45.6244 19.687C45.5284 19.7004 45.6244 19.687 45.5287 19.7009Z" fill="#8545AC"/>
<path d="M46.8624 18.82C49.9552 19.9448 50.5184 21.9963 51.066 23.9545C51.5532 25.696 53.1351 26.4392 54.6899 25.1036C56.1099 23.8841 56.8928 21.3961 56.1573 19.1154C55.2052 16.1631 51.298 14.2713 46.8484 18.7266C46.8619 18.8201 46.8484 18.7266 46.8624 18.82Z" fill="#8545AC"/>
<path d="M47.7982 19.9902C47.0171 21.0974 45.4647 21.3769 44.3302 20.6144C43.196 19.852 42.9097 18.3363 43.6909 17.2291C44.4717 16.1219 46.0245 15.8424 47.1589 16.6049C48.2931 17.3673 48.5794 18.883 47.7982 19.9902Z" fill="#8545AC"/>
</g>
</g>
<defs>
<clipPath id="clip0_7_528">
<rect width="330" height="37" fill="white"/>
</clipPath>
</defs>
</svg>
